# xmcd CD database file
#
# Track frame offsets:
#	150
#	33004
#	59071
#	83028
#	104970
#	135572
#	155129
#	175599
#	199823
#	234785
#	256850
#	276969
#	294661
#	316843
#
# Disc length: 4374 seconds
#
# Revision: 0
# Processed by: cddbd v1.4PL0 Copyright (c) Steve Scherf et al.
# Submitted via: CDex 1.50
#
DISCID=c511140e
DTITLE=TC Carson - TRUTH
DYEAR=1900
DGENRE=Jazz
TTITLE0=This time
TTITLE1=All you need
TTITLE2=Truth
TTITLE3=Waiting for you
TTITLE4=My friend (4 Nicky)
TTITLE5=Lordy please
TTITLE6=Private life
TTITLE7=Can't wait
TTITLE8=Momma's song
TTITLE9=Warm is the rain
TTITLE10=Big Willie
TTITLE11=Come together
TTITLE12=Life is just a dance
TTITLE13=All you need (reprise)
EXTD=
EXTT0=
EXTT1=
EXTT2=
EXTT3=
EXTT4=
EXTT5=
EXTT6=
EXTT7=
EXTT8=
EXTT9=
EXTT10=
EXTT11=
EXTT12=
EXTT13=
PLAYORDER=
